<?xml version="1.0" encoding="UTF-8"?>
<svg version="1.1" xmlns="http://www.w3.org/2000/svg" width="400" height="400">
<path d="M0 0 C132 0 264 0 400 0 C400 132 400 264 400 400 C268 400 136 400 0 400 C0 268 0 136 0 0 Z " fill="#0576BC" transform="translate(0,0)"/>
<path d="M0 0 C10.57435307 8.94502286 17.8568692 21.16965612 20.03515625 34.89453125 C20.18824855 38.06630368 20.18916797 41.23561418 20.19287109 44.41064453 C20.19795181 45.3624057 20.20303253 46.31416687 20.20826721 47.29476929 C20.21894886 49.3567323 20.22757764 51.41870675 20.23438644 53.48068619 C20.24619079 56.7416513 20.26564494 60.0024849 20.2875061 63.26339722 C20.34909072 72.53313861 20.40326866 81.80286406 20.43652344 91.07275391 C20.45742119 96.74554875 20.49267715 102.41809965 20.53728104 108.09075546 C20.55147191 110.25413018 20.5601704 112.417548 20.56333542 114.58096695 C20.56822226 117.59997532 20.59131994 120.61833052 20.61865234 123.63720703 C20.61564621 124.53493835 20.61264008 125.43266968 20.60954285 126.35760498 C20.62063583 127.17909027 20.63172882 128.00057556 20.64315796 128.84695435 C20.64812318 129.91709369 20.64812318 129.91709369 20.65318871 131.00885201 C21.1520826 133.47176772 22.06915084 134.37217036 24.03515625 135.89453125 C26.57746472 136.31132422 26.57746472 136.31132422 29.03515625 135.89453125 C31.70783708 133.22185042 31.2788321 131.20476753 31.30302429 127.57089233 C31.2989003 126.68213409 31.29477631 125.79337585 31.29052734 124.87768555 C31.2941478 123.94242538 31.29776825 123.00716522 31.30149841 122.04356384 C31.30840629 120.00612554 31.31089526 117.96866867 31.30955124 115.9312191 C31.30858729 112.6970864 31.32151676 109.46328732 31.33853149 106.22920227 C31.38481653 97.03132804 31.4093712 87.83348462 31.41601562 78.63549805 C31.42105823 73.01147738 31.44545814 67.38779928 31.48134232 61.76389503 C31.49108755 59.62831501 31.49350136 57.49268751 31.48817062 55.3570919 C31.4608559 43.86429167 31.5328413 33.6466646 36.03515625 22.89453125 C36.41328461 21.97657272 36.79141296 21.0586142 37.18099976 20.11283875 C40.14951654 13.25675906 44.80570195 8.14223844 50.03515625 2.89453125 C50.84919922 2.04568359 50.84919922 2.04568359 51.6796875 1.1796875 C62.31129962 -8.9674461 76.13305986 -12.52827848 90.359375 -12.2890625 C105.96607936 -11.50955654 120.15530586 -4.73565952 130.84765625 6.70703125 C142.36270019 20.86667858 144.63990363 36.13726923 144.48925781 53.7199707 C144.4881273 55.58393326 144.48876717 57.4478976 144.49102783 59.31185913 C144.49216795 64.33381557 144.46877323 69.35538404 144.440732 74.37725091 C144.4156004 79.63959767 144.41336712 84.9019549 144.40863037 90.16435242 C144.39623499 100.11234978 144.36346018 110.06016974 144.32323241 120.00808924 C144.27840733 131.34067721 144.25650073 142.67327398 144.23645067 154.00592864 C144.1947243 177.30223092 144.12362671 200.59836361 144.03515625 223.89453125 C137.76515625 223.89453125 131.49515625 223.89453125 125.03515625 223.89453125 C125.02968781 220.733181 125.02968781 220.733181 125.02410889 217.50796509 C124.98785694 197.64418954 124.92963401 177.78056482 124.85125351 157.91691017 C124.81148411 147.70485809 124.77908094 137.49288283 124.76416016 127.28076172 C124.75113278 118.37742584 124.72414034 109.47425916 124.68054318 100.57101858 C124.65795285 95.85900877 124.64224411 91.14720746 124.6432724 86.4351387 C124.64402045 81.99451706 124.62601182 77.5543559 124.59398842 73.11385345 C124.58551172 71.48939236 124.58372427 69.86487949 124.58935356 68.24040604 C124.62392851 56.72355768 123.35104659 47.08119521 115.9375 37.78125 C107.02288756 28.9398582 97.30469086 26.43527646 85.22119141 26.46289062 C78.45238351 26.62439383 73.53636629 27.77366145 68.03515625 31.89453125 C67.24882812 32.45269531 66.4625 33.01085937 65.65234375 33.5859375 C58.56614199 39.18707717 54.86018792 46.41943624 52.03515625 54.89453125 C51.94597102 56.25553084 51.91050498 57.62047168 51.9105835 58.98439026 C51.90802048 59.81547806 51.90545746 60.64656586 51.90281677 61.50283813 C51.90491653 62.41141571 51.9070163 63.31999329 51.90917969 64.25610352 C51.90731155 65.21583572 51.90544342 66.17556793 51.90351868 67.16438293 C51.89951201 69.25147292 51.89743959 71.33856729 51.89705658 73.42566109 C51.89364064 77.86956085 51.87227329 82.31331437 51.85182571 86.75716305 C51.81382588 95.03156845 51.78253628 103.30581966 51.78466797 111.58032227 C51.78545707 117.33523011 51.76200246 123.08960509 51.72278595 128.8443737 C51.71235154 131.03266947 51.71078295 133.22102693 51.71843719 135.40933418 C51.72811025 138.48253601 51.70677765 141.5541394 51.67871094 144.62719727 C51.68890762 145.52160522 51.69910431 146.41601318 51.70960999 147.33752441 C51.5890739 154.74635003 49.31172664 161.21789654 44.32551193 166.81292057 C39.06182386 171.80159475 33.23054403 174.00507596 26.03515625 174.26953125 C18.68254389 173.99929741 13.02587124 171.66862843 7.57421875 166.71484375 C4.86013134 163.50478097 3.48661954 159.79631428 2.03515625 155.89453125 C1.70515625 155.23453125 1.37515625 154.57453125 1.03515625 153.89453125 C0.93295594 150.80474456 0.89151938 147.73670101 0.89331055 144.64648438 C0.88983612 143.68689819 0.88636169 142.72731201 0.88278198 141.73864746 C0.87541623 139.64881472 0.87007523 137.55897412 0.86649132 135.46913147 C0.85933242 132.15607351 0.84366777 128.84316423 0.82514954 125.53015137 C0.77266947 116.10801294 0.72474909 106.68595314 0.70922852 97.26367188 C0.69911736 91.50348491 0.66970702 85.74366783 0.62790871 79.98362732 C0.61563217 77.79254461 0.6104713 75.60140954 0.61270714 73.41029358 C0.61507381 70.33237645 0.59278734 67.25550908 0.56518555 64.17773438 C0.57178696 63.28175537 0.57838837 62.38577637 0.58518982 61.46264648 C0.44682089 52.00393397 -2.70005042 44.85541273 -8.96484375 37.89453125 C-8.96484375 37.23453125 -8.96484375 36.57453125 -8.96484375 35.89453125 C-9.54492188 35.61609375 -10.125 35.33765625 -10.72265625 35.05078125 C-13.54210478 33.5968496 -16.12907523 31.86645853 -18.76953125 30.11328125 C-26.96733525 25.56218722 -36.85407789 25.76581502 -45.96484375 26.89453125 C-56.35234113 30.00635083 -63.11729737 36.31940182 -68.33984375 45.58203125 C-71.33842962 51.25048102 -72.08968033 55.36306194 -72.12306213 61.79144287 C-72.12800011 62.48498092 -72.13293809 63.17851897 -72.1380257 63.89307332 C-72.15337937 66.21614806 -72.16175553 68.53919521 -72.17016602 70.86230469 C-72.17974622 72.52790062 -72.18975638 74.19349412 -72.20016479 75.85908508 C-72.22720454 80.38141575 -72.24821916 84.90375685 -72.26816678 89.42612362 C-72.29003205 94.15204201 -72.3174181 98.87792831 -72.34422302 103.6038208 C-72.39414257 112.55328496 -72.43908415 121.50276695 -72.48224539 130.45226598 C-72.53162405 140.64081969 -72.58653985 150.82934119 -72.64192498 161.01786375 C-72.75573371 181.97672308 -72.86237878 202.93561366 -72.96484375 223.89453125 C-79.23484375 223.89453125 -85.50484375 223.89453125 -91.96484375 223.89453125 C-92.08081331 199.5111034 -92.16993156 175.12774247 -92.22390461 150.74409389 C-92.24963641 139.4211784 -92.28469059 128.0984379 -92.34204102 116.77563477 C-92.3920301 106.90145099 -92.42417124 97.02739401 -92.43528622 87.1530872 C-92.44177878 81.92940219 -92.45693259 76.70607979 -92.49349403 71.48251152 C-92.52769891 66.55521382 -92.53784774 61.62842445 -92.53038216 56.70101929 C-92.53174584 54.90284007 -92.54153124 53.10464197 -92.56087112 51.30656624 C-92.75100004 32.70056681 -88.38127091 17.70725104 -75.40234375 3.70703125 C-53.89072221 -16.82381727 -23.68773925 -16.82172788 0 0 Z " fill="#FBFCFD" transform="translate(172.96484375,94.10546875)"/>
<path d="M0 0 C6.58054189 3.78167505 10.67053375 8.96232096 13.5625 15.9375 C13.98084167 19.15903073 13.94928119 22.34728137 13.91552734 25.59204102 C13.91768753 26.54739243 13.91984772 27.50274384 13.92207336 28.48704529 C13.92515434 30.556072 13.92157222 32.62511709 13.91205978 34.69412422 C13.89827955 37.97905798 13.90478571 41.2633903 13.91690063 44.54832458 C13.9477933 53.88617921 13.94307146 63.22389373 13.92285156 72.56176758 C13.91187648 78.28119141 13.9252504 84.00016482 13.95274734 89.71952629 C13.95815634 91.88861757 13.95420551 94.05775478 13.94034958 96.22680855 C13.84449775 111.41578572 14.15662188 124.50469551 25.37890625 136.06640625 C28.80474547 139.00196436 32.45527873 141.10141724 36.5625 142.9375 C37.30886719 143.30230469 38.05523437 143.66710937 38.82421875 144.04296875 C47.31266528 146.81594201 58.94147478 145.90277194 67.06640625 142.390625 C77.15642348 136.51662436 83.46818546 128.09613812 86.5625 116.9375 C86.8495479 113.75844894 86.84298883 110.59345736 86.83374023 107.40307617 C86.83896698 106.46080673 86.84419373 105.51853729 86.84957886 104.54771423 C86.85979425 102.50816189 86.86559496 100.46858365 86.86746025 98.42900658 C86.8711333 95.19565631 86.88788652 91.96261018 86.90821838 88.72932434 C86.96353632 79.53860135 86.99428172 70.34783373 87.01879883 61.15698242 C87.03471604 55.52841245 87.06497908 49.90005849 87.10356331 44.27160072 C87.11517676 42.13271702 87.12114334 39.99379461 87.12124443 37.85487938 C87.12143752 34.85639408 87.13978038 31.85850034 87.16186523 28.86010742 C87.15728806 27.9855188 87.15271088 27.11093018 87.147995 26.20983887 C87.25157723 17.31706606 89.41105314 10.14436045 95.62890625 3.66796875 C101.69594731 -1.76172658 107.29098968 -2.74194266 115.3828125 -2.43359375 C123.84142113 -1.4464097 128.4661382 2.27000902 133.93359375 8.62109375 C137.23879653 13.32129818 137.81152532 17.21504925 137.80300903 22.91670227 C137.80471788 23.60701119 137.80642673 24.29732011 137.80818737 25.00854748 C137.81147387 27.31480557 137.80049261 29.6207708 137.78955078 31.92700195 C137.78898648 33.58289076 137.78930359 35.23878006 137.79043579 36.89466858 C137.79100959 41.38600868 137.7792509 45.87724194 137.76528788 50.36855721 C137.75278502 55.06374841 137.75161037 59.75894206 137.74923706 64.45414734 C137.74302099 73.34341224 137.72660843 82.23262794 137.70653808 91.12187117 C137.68418305 101.24270665 137.67318664 111.36354447 137.66314721 121.48439848 C137.64224233 142.30212719 137.60666097 163.11980876 137.5625 183.9375 C131.2925 183.9375 125.0225 183.9375 118.5625 183.9375 C118.55441315 182.1128421 118.54632629 180.2881842 118.53799438 178.40823364 C118.4606589 161.2497659 118.37307105 144.09137785 118.27497292 126.93301582 C118.22479929 118.11079781 118.17835703 109.28858931 118.140625 100.46630859 C118.10773768 92.77898417 118.06792473 85.09173258 118.01970994 77.40448844 C117.99441237 73.33218363 117.97264085 69.25992734 117.95915604 65.18756485 C117.94636506 61.35773282 117.92434317 57.52806691 117.89511681 53.69832611 C117.88601772 52.28980932 117.88034539 50.88126577 117.87828636 49.4727211 C117.87498038 47.55535446 117.85835705 45.63802433 117.8409729 43.72073364 C117.83544214 42.64592302 117.82991138 41.5711124 117.82421303 40.46373177 C117.81323598 37.76791764 117.81323598 37.76791764 115.5625 35.9375 C111.99657381 36.10167032 111.99657381 36.10167032 108.5625 36.9375 C106.87952577 40.30344845 107.42763708 44.11316813 107.43652344 47.81494141 C107.4346553 48.73562912 107.43278717 49.65631683 107.43086243 50.60490417 C107.42685065 52.61124008 107.42478288 54.61758057 107.42440033 56.62392044 C107.42098285 60.90724829 107.39960422 65.19042465 107.37916946 69.47369957 C107.34122103 77.44830519 107.30986909 85.42275477 107.31201172 93.39746094 C107.31280484 98.94376637 107.28917036 104.48952434 107.2501297 110.03568649 C107.23974929 112.1380809 107.23808615 114.24053915 107.24578094 116.3429451 C107.30080342 133.06229852 105.72203938 147.96181524 95.5625 161.9375 C95.08554688 162.61941406 94.60859375 163.30132812 94.1171875 164.00390625 C87.2823475 172.77929128 76.27945571 179.32668957 65.5625 181.9375 C63.7371875 182.5253125 63.7371875 182.5253125 61.875 183.125 C48.39225018 186.28795125 34.61193681 183.22348823 22.5859375 176.86328125 C9.4381097 168.48876044 -0.20971944 156.04352524 -3.97019196 140.77456665 C-5.23711957 134.82082426 -5.73163629 129.1907015 -5.72460938 123.11328125 C-5.73144241 122.18844437 -5.73827545 121.26360748 -5.74531555 120.31074524 C-5.75880245 118.32309355 -5.76792018 116.33540817 -5.77302551 114.34771729 C-5.78137164 111.20418414 -5.80192326 108.06093358 -5.82556152 104.91748047 C-5.88172729 97.12182613 -5.91729558 89.32610387 -5.95318604 81.53033447 C-5.9843755 74.91852422 -6.02348427 68.30685584 -6.07344055 61.69515991 C-6.09354555 58.59403623 -6.1018314 55.49302103 -6.10974121 52.3918457 C-6.12270455 50.50341385 -6.13622351 48.6149857 -6.15039062 46.7265625 C-6.14940872 45.86114334 -6.14842682 44.99572418 -6.14741516 44.1040802 C-5.99130207 39.54399819 -5.99130207 39.54399819 -8.4375 35.9375 C-12.00342619 36.10167032 -12.00342619 36.10167032 -15.4375 36.9375 C-16.77660386 39.61570771 -16.57758245 41.68256884 -16.59571838 44.68276978 C-16.61040161 46.51697227 -16.61040161 46.51697227 -16.62538147 48.38822937 C-16.63128602 49.75051841 -16.63709644 51.11280786 -16.64282227 52.47509766 C-16.65239835 53.90394882 -16.66240827 55.33279714 -16.67282104 56.76164246 C-16.69990545 60.64774553 -16.72089583 64.53386079 -16.74082303 68.42000628 C-16.76266082 72.47862512 -16.79006028 76.53720624 -16.81687927 80.59579468 C-16.86683607 88.28451396 -16.9117638 95.97325414 -16.95490164 103.66201437 C-17.00424852 112.41403517 -17.05917608 121.16601814 -17.11458123 129.91800237 C-17.22844712 147.92446668 -17.33507814 165.93096721 -17.4375 183.9375 C-23.7075 183.9375 -29.9775 183.9375 -36.4375 183.9375 C-36.55336611 162.33616884 -36.64253501 140.73491284 -36.69656086 119.13333321 C-36.72231552 109.10277842 -36.75741366 99.07242056 -36.81469727 89.04199219 C-36.86461611 80.29695623 -36.89681091 71.55206294 -36.90794247 62.80688846 C-36.91444689 58.17858583 -36.92967676 53.55069123 -36.96615028 48.92251968 C-37.00024397 44.56073471 -37.01052617 40.19952345 -37.00303841 35.83761787 C-37.00440701 34.24212965 -37.01425983 32.64662102 -37.03352737 31.05124855 C-37.14661455 21.19913854 -36.71647581 12.58138666 -29.66579151 5.04332161 C-28.00476283 3.50441267 -26.3050024 2.21482105 -24.4375 0.9375 C-23.138125 0.009375 -23.138125 0.009375 -21.8125 -0.9375 C-14.57248116 -3.35083961 -6.96605098 -3.19321247 0 0 Z " fill="#FBFCFD" transform="translate(148.4375,134.0625)"/>
</svg>
